<svg width="300" height="38" viewBox="0 0 300 38" fill="none" xmlns="http://www.w3.org/2000/svg">
<mask id="mask0_1_3" style="mask-type:luminance" maskUnits="userSpaceOnUse" x="0" y="0" width="300" height="38">
<path d="M300 0V38H0V0H300Z" fill="white"/>
</mask>
<g mask="url(#mask0_1_3)">
<path d="M121.523 37.1141L272.284 37.1271C272.284 37.1271 297.671 37.1271 297.671 31.5834V6.09086C297.671 6.09086 297.671 0.542857 272.284 0.542857H0" stroke="white" stroke-width="1.6"/>
<path d="M106.805 32.3185V24.8998H103.18L92.4025 30.1601L81.3429 24.8998H77.7176V32.3185H81.3429V26.6803L90.7916 31.1513H93.895L103.195 26.6803V32.3185H106.82H106.805ZM140.284 32.3185L127.835 24.8998H124.792L112.298 32.3185H116.163L118.881 30.6427H133.717L136.432 32.3185H140.299H140.284ZM132.643 29.9543H119.955L126.343 26.0381L132.643 29.9543ZM171.176 32.3185L158.967 27.7666L169.656 24.9003H165.219L149.387 29.1617V24.9003H145.757V32.3185H149.387V30.2447L156.534 28.3697L166.878 32.3185H171.176ZM197.834 32.3185V31.6111H180.386V28.9337H195.267V28.2259H180.386V25.6109H197.831V24.903H176.758V32.3217H197.834V32.3185ZM229.117 32.3185L221.057 28.9527C225.444 28.7541 228.444 28.0467 228.444 26.9643C228.444 25.6831 224.297 24.8998 218.385 24.8998H205.371V32.3185H208.997V29.0249H217.147L224.879 32.3185H229.117ZM224.818 26.974C224.818 27.8806 222.013 28.3274 218.042 28.3274H208.982V25.6077H218.042C221.997 25.6077 224.818 26.0675 224.818 26.974Z" fill="white" stroke="white" stroke-width="0.2"/>
<path d="M75.0908 16.1739V15.4665H54.0151V22.8847H57.6429V19.614H72.5218V18.9066H57.6429V16.1771H75.0882L75.0908 16.1739ZM85.3008 22.8814V15.4633H81.6706V22.8814H85.3008ZM116.105 22.8814V22.1741H98.7454V15.466H95.1202V22.8841H116.105V22.8814ZM149.15 22.8814V15.4633H145.52L134.745 20.723L123.686 15.4627H120.061V22.8814H123.686V17.2433L133.134 21.7143H136.238L145.538 17.2433V22.8814H149.163H149.15Z" fill="white" stroke="white" stroke-width="0.2"/>
<path d="M43.3866 9.652C43.3866 8.62166 43.5832 7.48709 40.0437 6.71406C38.0017 6.26729 34.984 6.02626 31.4622 6.02626H19.8202V13.4444H31.4622C34.984 13.4444 37.9992 13.2034 40.0437 12.7566C43.5681 11.9868 43.3891 10.6829 43.3891 9.652H43.3866ZM39.7613 9.652C39.7613 10.5586 39.8496 11.6644 37.5227 12.1958C35.7605 12.5899 33.479 12.7371 30.8521 12.7371H23.463V6.73686H30.8496C33.479 6.73686 35.7605 6.88343 37.5227 7.27809C39.8672 7.81009 39.7613 8.74923 39.7613 9.652ZM75.1336 10.9988V6.02951H71.5084V10.9369C71.5084 12.0617 68.2235 12.8022 63.2546 12.8022C58.2857 12.8022 55.0613 12.0617 55.0613 10.9369V6.02951H51.4286V10.9988C51.4286 12.4792 56.3849 13.5095 63.2521 13.5095C70.1168 13.5095 75.1336 12.4792 75.1336 10.9988ZM107.806 11.3935C107.806 10.5065 105.522 9.89357 102.27 9.63246C105.134 9.40446 107.269 8.78831 107.269 8.00877C107.269 6.76943 103.165 6.02951 97.2529 6.02951H84.479V13.4477H97.6866C103.702 13.4477 107.791 12.7403 107.791 11.3967L107.806 11.3935ZM103.656 8.01854C103.656 8.90557 100.747 9.31 96.9857 9.31H88.1193V6.73686H96.9857C100.747 6.73686 103.656 7.13206 103.656 8.01854ZM104.178 11.3734C104.178 12.2089 101.551 12.7371 97.3588 12.7371H88.1067V10.0173H97.3588C101.551 10.0173 104.178 10.539 104.178 11.3707V11.3734ZM140.002 13.4444L127.553 6.02626H124.492L112.001 13.4444H115.866L118.583 11.7686H133.417L136.134 13.4444H140.002ZM132.358 11.0803H119.672L126.061 7.16409L132.358 11.0803ZM149.105 13.4444V6.02626H145.477V13.4444H149.105Z" fill="white" stroke="white" stroke-width="0.2"/>
</g>
</svg>
